999
FreeCAD v0.19 24291 (Git)
  0
SECTION
  2
HEADER
  9
$ACADVER
  1
AC1014
  9
$ACADMAINTVER
 70
     9
  9
$DWGCODEPAGE
  3
ANSI_1252
  9
$TEXTSTYLE
  7
STANDARD
  9
$DIMSTYLE
  2
STANDARD
  9
$DIMTXSTY
  7
STANDARD
  9
$CMLSTYLE
  2
STANDARD
  9
$PEXTMAX
 10
50
 20
50
 30
50
  9
$PEXTMIN
 10
0
 20
0
 30
0
  9
$HANDSEED
  5
FFFF
  0
ENDSEC
  0
SECTION
  2
CLASSES
  0
CLASS
  1
ACDBDICTIONARYWDFLT
  2
AcDbDictionaryWithDefault
  3
ObjectDBX Classes
 90
        0
280
     0
281
     0
  0
CLASS
  1
XRECORD
  2
AcDbXrecord
  3
ObjectDBX Classes
 90
        0
280
     0
281
     0
  0
CLASS
  1
LWPOLYLINE
  2
AcDbPolyline
  3
ObjectDBX Classes
 90
        0
280
     0
281
     1
  0
ENDSEC
  0
SECTION
  2
TABLES
  0
TABLE
  2
VPORT
  5
20
330
0
100
AcDbSymbolTable
 70
     1
  0
VPORT
  5
21
330
20
100
AcDbSymbolTableRecord
100
AcDbViewportTableRecord
  2
*ACTIVE
 70
     0
  0
ENDTAB
  0
TABLE
  2
LTYPE
  5
22
330
0
100
AcDbSymbolTable
 70
     1
  0
LTYPE
  5
23
330
21
100
AcDbSymbolTableRecord
100
AcDbLinetypeTableRecord
  2
BYBLOCK
 70
     0
  3

 72
    65
 73
     0
 40
0.0
  0
LTYPE
  5
24
330
21
100
AcDbSymbolTableRecord
100
AcDbLinetypeTableRecord
  2
BYLAYER
 70
     0
  3

 72
    65
 73
     0
 40
0.0
  0
LTYPE
  5
25
330
21
100
AcDbSymbolTableRecord
100
AcDbLinetypeTableRecord
  2
CONTINUOUS
 70
     0
  3
Solid line
 72
    65
 73
     0
 40
0.0
  0
ENDTAB
  0
TABLE
  2
LAYER
  5
A44
330
0
100
AcDbSymbolTable
 70
3
  0
LAYER
  5
A45
330
A44
100
AcDbSymbolTableRecord
100
AcDbLayerTableRecord
  2
0
 70
   0
 62
   7
  6
CONTINUOUS
  0
LAYER
  5
A46
330
A44
100
AcDbSymbolTableRecord
100
AcDbLayerTableRecord
  2
none
 70
    0
 62
    7
  6
CONTINUOUS
  0
LAYER
  5
A47
330
A44
100
AcDbSymbolTableRecord
100
AcDbLayerTableRecord
  2
Shape2DView
 70
    0
 62
    7
  6
CONTINUOUS
  0
ENDTAB
  0
TABLE
  2
STYLE
  5
70
330
0
100
AcDbSymbolTable
 70
     2
  0
STYLE
  5
71
330
70
100
AcDbSymbolTableRecord
100
AcDbTextStyleTableRecord
  2
STANDARD
 70
     0
 40
0.0
 41
1.0
 50
0.0
 71
     0
 42
2.5
  3
arial.ttf
  4

  0
STYLE
  5
72
330
70
100
AcDbSymbolTableRecord
100
AcDbTextStyleTableRecord
  2
ANNOTATIVE
 70
     0
 40
0.0
 41
1.0
 50
0.0
 71
     0
 42
2.5
  3
arial.ttf
  4

  0
ENDTAB
  0
TABLE
  2
VIEW
  5
73
330
0
100
AcDbSymbolTable
 70
     0
  0
ENDTAB
  0
TABLE
  2
UCS
  5
74
330
0
100
AcDbSymbolTable
 70
     0
  0
ENDTAB
  0
TABLE
  2
APPID
  5
75
330
0
100
AcDbSymbolTable
 70
     2
  0
APPID
  5
76
330
75
100
AcDbSymbolTableRecord
100
AcDbRegAppTableRecord
  2
ACAD
 70
     0
  0
APPID
  5
77
330
75
100
AcDbSymbolTableRecord
100
AcDbRegAppTableRecord
  2
ACADANNOTATIVE
 70
     0
  0
ENDTAB
  0
TABLE
  2
DIMSTYLE
  5
78
330
0
100
AcDbSymbolTable
 70
     2
  0
DIMSTYLE
105
79
330
78
100
AcDbSymbolTableRecord
100
AcDbDimStyleTableRecord
  2
STANDARD
 70
     0
  3

  4

  5

  6

  7

 40
0.0
 41
2.5
 42
0.625
 43
3.75
 44
1.25
 45
0.0
 46
0.0
 47
0.0
 48
0.0
140
2.5
141
2.5
142
0.0
143
0.03937007874016
144
1.0
145
0.0
146
1.0
147
0.625
 71
     0
 72
     0
 73
     0
 74
     0
 75
     0
 76
     0
 77
     1
 78
     8
170
     0
171
     3
172
     1
173
     0
174
     0
175
     0
176
     0
177
     0
178
     0
270
     2
271
     2
272
     2
273
     2
274
     3
340
71
275
     0
280
     0
281
     0
282
     0
283
     0
284
     8
285
     0
286
     0
287
     3
288
     0
  0
ENDTAB
  0
TABLE
  2
BLOCK_RECORD
  5
A01
330
0
100
AcDbSymbolTable
  70
5
  0
BLOCK_RECORD
  5
A02
330
A01
100
AcDbSymbolTableRecord
100
AcDbBlockTableRecord
  2
*MODEL_SPACE
  0
BLOCK_RECORD
  5
A03
330
A01
100
AcDbSymbolTableRecord
100
AcDbBlockTableRecord
  2
*PAPER_SPACE
  0
ENDTAB
  0
ENDSEC
  0
SECTION
  2
BLOCKS
  0
BLOCK
  5
A04
330
A02
100
AcDbEntity
  8
0
100
AcDbBlockBegin
  2
*MODEL_SPACE
 70
   0
 10
0
 20
0
 30
0
  3
*MODEL_SPACE
  1
 
  0
ENDBLK
  5
A05
330
A02
100
AcDbEntity
  8
0
100
AcDbBlockEnd
  0
BLOCK
  5
A06
330
A03
100
AcDbEntity
 67
1
  8
0
100
AcDbBlockBegin
  2
*PAPER_SPACE
 70
   0
 10
0
 20
0
 30
0
  3
*PAPER_SPACE
  1
 
  0
ENDBLK
  5
A07
330
A03
100
AcDbEntity
 67
    1
  8
0
100
AcDbBlockEnd
  0
ENDSEC
  0
SECTION
  2
ENTITIES
  0
LINE
  5
A08
330
A02
100
AcDbEntity
  8
Shape2DView
100
AcDbLine
 10
76.5555
 20
-419.531
 30
0
 11
287.555
 21
-419.531
 31
0
  0
ARC
  5
A09
330
A02
100
AcDbEntity
  8
Shape2DView
100
AcDbCircle
 10
287.555
 20
-409.531
 30
0
 40
10
100
AcDbArc
 50
-90
 51
0
  0
LINE
  5
A0A
330
A02
100
AcDbEntity
  8
Shape2DView
100
AcDbLine
 10
76.5555
 20
-37.0549
 30
0
 11
76.5555
 21
-419.531
 31
0
  0
LINE
  5
A0B
330
A02
100
AcDbEntity
  8
Shape2DView
100
AcDbLine
 10
297.555
 20
-409.531
 30
0
 11
297.555
 21
-4.53114
 31
0
  0
SPLINE
  5
A0C
330
A02
100
AcDbEntity
  8
Shape2DView
100
AcDbSpline
210
0
220
0
230
1
 70
8
 71
1
 72
4
 73
2
 74
0
 40
0
 40
0
 40
0.328934
 40
0.328934
 10
76.2285
 20
-37.0456
 30
0
 10
76.5555
 20
-37.0549
 30
0
  0
LINE
  5
A0D
330
A02
100
AcDbEntity
  8
Shape2DView
100
AcDbLine
 10
297.555
 20
-4.53114
 30
0
 11
109.081
 21
-4.53114
 31
0
  0
SPLINE
  5
A0E
330
A02
100
AcDbEntity
  8
Shape2DView
100
AcDbSpline
210
0
220
0
230
1
 70
8
 71
3
 72
14
 73
10
 74
0
 40
0
 40
0
 40
0
 40
0
 40
2.83282
 40
2.83282
 40
2.83282
 40
3.71808
 40
3.71808
 40
3.71808
 40
4.42632
 40
4.42632
 40
4.42632
 40
4.42632
 10
72.1299
 20
-35.4559
 30
0
 10
72.9401
 20
-35.9361
 30
0
 10
73.7897
 20
-36.3681
 30
0
 10
74.6816
 20
-36.6778
 30
0
 10
74.9604
 20
-36.7754
 30
0
 10
75.2433
 20
-36.8592
 30
0
 10
75.5304
 20
-36.9292
 30
0
 10
75.7601
 20
-36.9878
 30
0
 10
75.9928
 20
-37.0265
 30
0
 10
76.2285
 20
-37.0456
 30
0
  0
SPLINE
  5
A0F
330
A02
100
AcDbEntity
  8
Shape2DView
100
AcDbSpline
210
0
220
0
230
1
 70
8
 71
1
 72
4
 73
2
 74
0
 40
0
 40
0
 40
0.328934
 40
0.328934
 10
109.081
 20
-4.53114
 30
0
 10
109.072
 20
-4.20234
 30
0
  0
SPLINE
  5
A10
330
A02
100
AcDbEntity
  8
Shape2DView
100
AcDbSpline
210
0
220
0
230
1
 70
8
 71
1
 72
4
 73
2
 74
0
 40
0
 40
0
 40
1.50537
 40
1.50537
 10
72.2611
 20
-33.9562
 30
0
 10
72.1299
 20
-35.4559
 30
0
  0
SPLINE
  5
A11
330
A02
100
AcDbEntity
  8
Shape2DView
100
AcDbSpline
210
0
220
0
230
1
 70
8
 71
3
 72
14
 73
10
 74
0
 40
0
 40
0
 40
0
 40
0
 40
0.708239
 40
0.708239
 40
0.708239
 40
1.5935
 40
1.5935
 40
1.5935
 40
4.42632
 40
4.42632
 40
4.42632
 40
4.42632
 10
109.072
 20
-4.20234
 30
0
 10
109.053
 20
-3.96665
 30
0
 10
109.014
 20
-3.73396
 30
0
 10
108.955
 20
-3.50429
 30
0
 10
108.885
 20
-3.21713
 30
0
 10
108.802
 20
-2.93419
 30
0
 10
108.704
 20
-2.65548
 30
0
 10
108.394
 20
-1.7635
 30
0
 10
107.962
 20
-0.913981
 30
0
 10
107.482
 20
-0.103744
 30
0
  0
SPLINE
  5
A12
330
A02
100
AcDbEntity
  8
Shape2DView
100
AcDbSpline
210
0
220
0
230
1
 70
8
 71
3
 72
14
 73
10
 74
0
 40
0
 40
0
 40
0
 40
0
 40
0.708239
 40
0.708239
 40
0.708239
 40
1.5935
 40
1.5935
 40
1.5935
 40
4.42632
 40
4.42632
 40
4.42632
 40
4.42632
 10
76.5735
 20
-33.1024
 30
0
 10
76.3381
 20
-33.0802
 30
0
 10
76.1022
 20
-33.078
 30
0
 10
75.8658
 20
-33.0958
 30
0
 10
75.5709
 20
-33.1148
 30
0
 10
75.2777
 20
-33.1482
 30
0
 10
74.9863
 20
-33.196
 30
0
 10
74.0541
 20
-33.3461
 30
0
 10
73.1424
 20
-33.6239
 30
0
 10
72.2611
 20
-33.9562
 30
0
  0
SPLINE
  5
A13
330
A02
100
AcDbEntity
  8
Shape2DView
100
AcDbSpline
210
0
220
0
230
1
 70
8
 71
1
 72
4
 73
2
 74
0
 40
0
 40
0
 40
1.50537
 40
1.50537
 10
107.482
 20
-0.103744
 30
0
 10
105.982
 20
-0.234946
 30
0
  0
SPLINE
  5
A14
330
A02
100
AcDbEntity
  8
Shape2DView
100
AcDbSpline
210
0
220
0
230
1
 70
8
 71
1
 72
4
 73
2
 74
0
 40
0
 40
0
 40
0.328934
 40
0.328934
 10
76.8989
 20
-33.1502
 30
0
 10
76.5735
 20
-33.1024
 30
0
  0
SPLINE
  5
A15
330
A02
100
AcDbEntity
  8
Shape2DView
100
AcDbSpline
210
0
220
0
230
1
 70
8
 71
3
 72
14
 73
10
 74
0
 40
0
 40
0
 40
0
 40
0
 40
2.83282
 40
2.83282
 40
2.83282
 40
3.71808
 40
3.71808
 40
3.71808
 40
4.42632
 40
4.42632
 40
4.42632
 40
4.42632
 10
105.982
 20
-0.234946
 30
0
 10
105.65
 20
-1.11627
 30
0
 10
105.372
 20
-2.02789
 30
0
 10
105.222
 20
-2.9601
 30
0
 10
105.174
 20
-3.25153
 30
0
 10
105.141
 20
-3.54472
 30
0
 10
105.122
 20
-3.83967
 30
0
 10
105.104
 20
-4.07602
 30
0
 10
105.106
 20
-4.31191
 30
0
 10
105.129
 20
-4.54733
 30
0
  0
SPLINE
  5
A16
330
A02
100
AcDbEntity
  8
Shape2DView
100
AcDbSpline
210
0
220
0
230
1
 70
8
 71
1
 72
4
 73
2
 74
0
 40
0
 40
0
 40
1.92457
 40
1.92457
 10
77.2331
 20
-31.2548
 30
0
 10
76.8989
 20
-33.1502
 30
0
  0
SPLINE
  5
A17
330
A02
100
AcDbEntity
  8
Shape2DView
100
AcDbSpline
210
0
220
0
230
1
 70
8
 71
1
 72
4
 73
2
 74
0
 40
0
 40
0
 40
0.328934
 40
0.328934
 10
105.129
 20
-4.54733
 30
0
 10
105.176
 20
-4.87277
 30
0
  0
SPLINE
  5
A18
330
A02
100
AcDbEntity
  8
Shape2DView
100
AcDbSpline
210
0
220
0
230
1
 70
8
 71
1
 72
4
 73
2
 74
0
 40
0
 40
0
 40
0.328934
 40
0.328934
 10
76.911
 20
-31.1884
 30
0
 10
77.2331
 20
-31.2548
 30
0
  0
SPLINE
  5
A19
330
A02
100
AcDbEntity
  8
Shape2DView
100
AcDbSpline
210
0
220
0
230
1
 70
8
 71
1
 72
4
 73
2
 74
0
 40
0
 40
0
 40
1.92457
 40
1.92457
 10
105.176
 20
-4.87277
 30
0
 10
103.281
 20
-5.20697
 30
0
  0
SPLINE
  5
A1A
330
A02
100
AcDbEntity
  8
Shape2DView
100
AcDbSpline
210
0
220
0
230
1
 70
8
 71
3
 72
14
 73
10
 74
0
 40
0
 40
0
 40
0
 40
0
 40
2.83282
 40
2.83282
 40
2.83282
 40
3.71808
 40
3.71808
 40
3.71808
 40
4.42632
 40
4.42632
 40
4.42632
 40
4.42632
 10
73.1507
 20
-28.9112
 30
0
 10
73.8652
 20
-29.5248
 30
0
 10
74.6268
 20
-30.0977
 30
0
 10
75.4515
 20
-30.5576
 30
0
 10
75.709
 20
-30.7022
 30
0
 10
75.9731
 20
-30.8339
 30
0
 10
76.2437
 20
-30.9526
 30
0
 10
76.4597
 20
-31.0502
 30
0
 10
76.6822
 20
-31.1288
 30
0
 10
76.911
 20
-31.1884
 30
0
  0
SPLINE
  5
A1B
330
A02
100
AcDbEntity
  8
Shape2DView
100
AcDbSpline
210
0
220
0
230
1
 70
8
 71
1
 72
4
 73
2
 74
0
 40
0
 40
0
 40
0.328934
 40
0.328934
 10
103.281
 20
-5.20697
 30
0
 10
103.215
 20
-4.88481
 30
0
  0
SPLINE
  5
A1C
330
A02
100
AcDbEntity
  8
Shape2DView
100
AcDbSpline
210
0
220
0
230
1
 70
8
 71
1
 72
4
 73
2
 74
0
 40
0
 40
0
 40
1.50537
 40
1.50537
 10
73.5403
 20
-27.4571
 30
0
 10
73.1507
 20
-28.9112
 30
0
  0
SPLINE
  5
A1D
330
A02
100
AcDbEntity
  8
Shape2DView
100
AcDbSpline
210
0
220
0
230
1
 70
8
 71
3
 72
14
 73
10
 74
0
 40
0
 40
0
 40
0
 40
0
 40
0.708239
 40
0.708239
 40
0.708239
 40
1.5935
 40
1.5935
 40
1.5935
 40
4.42632
 40
4.42632
 40
4.42632
 40
4.42632
 10
103.215
 20
-4.88481
 30
0
 10
103.155
 20
-4.656
 30
0
 10
103.076
 20
-4.43359
 30
0
 10
102.979
 20
-4.21756
 30
0
 10
102.86
 20
-3.94692
 30
0
 10
102.728
 20
-3.68283
 30
0
 10
102.584
 20
-3.42531
 30
0
 10
102.124
 20
-2.60066
 30
0
 10
101.551
 20
-1.83906
 30
0
 10
100.937
 20
-1.12453
 30
0
  0
SPLINE
  5
A1E
330
A02
100
AcDbEntity
  8
Shape2DView
100
AcDbSpline
210
0
220
0
230
1
 70
8
 71
3
 72
14
 73
10
 74
0
 40
0
 40
0
 40
0
 40
0
 40
0.708239
 40
0.708239
 40
0.708239
 40
1.5935
 40
1.5935
 40
1.5935
 40
4.42632
 40
4.42632
 40
4.42632
 40
4.42632
 10
77.9354
 20
-27.365
 30
0
 10
77.7075
 20
-27.3023
 30
0
 10
77.4755
 20
-27.2592
 30
0
 10
77.2397
 20
-27.2356
 30
0
 10
76.9459
 20
-27.2032
 30
0
 10
76.6514
 20
-27.1852
 30
0
 10
76.3561
 20
-27.1816
 30
0
 10
75.412
 20
-27.1675
 30
0
 10
74.4659
 20
-27.2829
 30
0
 10
73.5403
 20
-27.4571
 30
0
  0
SPLINE
  5
A1F
330
A02
100
AcDbEntity
  8
Shape2DView
100
AcDbSpline
210
0
220
0
230
1
 70
8
 71
1
 72
4
 73
2
 74
0
 40
0
 40
0
 40
1.50537
 40
1.50537
 10
100.937
 20
-1.12453
 30
0
 10
99.4832
 20
-1.51415
 30
0
  0
SPLINE
  5
A20
330
A02
100
AcDbEntity
  8
Shape2DView
100
AcDbSpline
210
0
220
0
230
1
 70
8
 71
1
 72
4
 73
2
 74
0
 40
0
 40
0
 40
0.328934
 40
0.328934
 10
78.2476
 20
-27.4686
 30
0
 10
77.9354
 20
-27.365
 30
0
  0
SPLINE
  5
A21
330
A02
100
AcDbEntity
  8
Shape2DView
100
AcDbSpline
210
0
220
0
230
1
 70
8
 71
3
 72
14
 73
10
 74
0
 40
0
 40
0
 40
0
 40
0
 40
2.83282
 40
2.83282
 40
2.83282
 40
3.71808
 40
3.71808
 40
3.71808
 40
4.42632
 40
4.42632
 40
4.42632
 40
4.42632
 10
99.4832
 20
-1.51415
 30
0
 10
99.3091
 20
-2.43978
 30
0
 10
99.1937
 20
-3.3858
 30
0
 10
99.2078
 20
-4.32991
 30
0
 10
99.2113
 20
-4.62521
 30
0
 10
99.2293
 20
-4.91975
 30
0
 10
99.2618
 20
-5.21352
 30
0
 10
99.2854
 20
-5.44937
 30
0
 10
99.3285
 20
-5.68129
 30
0
 10
99.3912
 20
-5.90928
 30
0
  0
SPLINE
  5
A22
330
A02
100
AcDbEntity
  8
Shape2DView
100
AcDbSpline
210
0
220
0
230
1
 70
8
 71
1
 72
4
 73
2
 74
0
 40
0
 40
0
 40
1.92457
 40
1.92457
 10
78.9059
 20
-25.6601
 30
0
 10
78.2476
 20
-27.4686
 30
0
  0
SPLINE
  5
A23
330
A02
100
AcDbEntity
  8
Shape2DView
100
AcDbSpline
210
0
220
0
230
1
 70
8
 71
1
 72
4
 73
2
 74
0
 40
0
 40
0
 40
0.328934
 40
0.328934
 10
99.3912
 20
-5.90928
 30
0
 10
99.4948
 20
-6.22148
 30
0
  0
SPLINE
  5
A24
330
A02
100
AcDbEntity
  8
Shape2DView
100
AcDbSpline
210
0
220
0
230
1
 70
8
 71
1
 72
4
 73
2
 74
0
 40
0
 40
0
 40
0.328934
 40
0.328934
 10
78.6001
 20
-25.5388
 30
0
 10
78.9059
 20
-25.6601
 30
0
  0
SPLINE
  5
A25
330
A02
100
AcDbEntity
  8
Shape2DView
100
AcDbSpline
210
0
220
0
230
1
 70
8
 71
1
 72
4
 73
2
 74
0
 40
0
 40
0
 40
1.92457
 40
1.92457
 10
99.4948
 20
-6.22148
 30
0
 10
97.6863
 20
-6.87972
 30
0
  0
SPLINE
  5
A26
330
A02
100
AcDbEntity
  8
Shape2DView
100
AcDbSpline
210
0
220
0
230
1
 70
8
 71
3
 72
14
 73
10
 74
0
 40
0
 40
0
 40
0
 40
0
 40
2.83282
 40
2.83282
 40
2.83282
 40
3.71808
 40
3.71808
 40
3.71808
 40
4.42632
 40
4.42632
 40
4.42632
 40
4.42632
 10
75.2924
 20
-22.6431
 30
0
 10
75.8896
 20
-23.3716
 30
0
 10
76.5401
 20
-24.068
 30
0
 10
77.2724
 20
-24.6641
 30
0
 10
77.5009
 20
-24.8512
 30
0
 10
77.7381
 20
-25.0267
 30
0
 10
77.984
 20
-25.1907
 30
0
 10
78.1798
 20
-25.3242
 30
0
 10
78.3852
 20
-25.4403
 30
0
 10
78.6001
 20
-25.5388
 30
0
  0
SPLINE
  5
A27
330
A02
100
AcDbEntity
  8
Shape2DView
100
AcDbSpline
210
0
220
0
230
1
 70
8
 71
1
 72
4
 73
2
 74
0
 40
0
 40
0
 40
0.328934
 40
0.328934
 10
97.6863
 20
-6.87972
 30
0
 10
97.5649
 20
-6.57399
 30
0
  0
SPLINE
  5
A28
330
A02
100
AcDbEntity
  8
Shape2DView
100
AcDbSpline
210
0
220
0
230
1
 70
8
 71
1
 72
4
 73
2
 74
0
 40
0
 40
0
 40
1.50537
 40
1.50537
 10
75.9286
 20
-21.2788
 30
0
 10
75.2924
 20
-22.6431
 30
0
  0
SPLINE
  5
A29
330
A02
100
AcDbEntity
  8
Shape2DView
100
AcDbSpline
210
0
220
0
230
1
 70
8
 71
3
 72
14
 73
10
 74
0
 40
0
 40
0
 40
0
 40
0
 40
0.708239
 40
0.708239
 40
0.708239
 40
1.5935
 40
1.5935
 40
1.5935
 40
4.42632
 40
4.42632
 40
4.42632
 40
4.42632
 10
97.5649
 20
-6.57399
 30
0
 10
97.4664
 20
-6.35902
 30
0
 10
97.3504
 20
-6.15363
 30
0
 10
97.2168
 20
-5.95783
 30
0
 10
97.0529
 20
-5.71192
 30
0
 10
96.8774
 20
-5.47471
 30
0
 10
96.6903
 20
-5.2462
 30
0
 10
96.0942
 20
-4.51394
 30
0
 10
95.3977
 20
-3.86339
 30
0
 10
94.6693
 20
-3.26628
 30
0
  0
SPLINE
  5
A2A
330
A02
100
AcDbEntity
  8
Shape2DView
100
AcDbSpline
210
0
220
0
230
1
 70
8
 71
3
 72
14
 73
10
 74
0
 40
0
 40
0
 40
0
 40
0
 40
0.708239
 40
0.708239
 40
0.708239
 40
1.5935
 40
1.5935
 40
1.5935
 40
4.42632
 40
4.42632
 40
4.42632
 40
4.42632
 10
80.273
 20
-21.9514
 30
0
 10
80.0594
 20
-21.85
 30
0
 10
79.8384
 20
-21.7673
 30
0
 10
79.6103
 20
-21.7031
 30
0
 10
79.3266
 20
-21.6201
 30
0
 10
79.0397
 20
-21.5513
 30
0
 10
78.7495
 20
-21.4965
 30
0
 10
77.8221
 20
-21.3187
 30
0
 10
76.8705
 20
-21.268
 30
0
 10
75.9286
 20
-21.2788
 30
0
  0
SPLINE
  5
A2B
330
A02
100
AcDbEntity
  8
Shape2DView
100
AcDbSpline
210
0
220
0
230
1
 70
8
 71
1
 72
4
 73
2
 74
0
 40
0
 40
0
 40
1.50537
 40
1.50537
 10
94.6693
 20
-3.26628
 30
0
 10
93.305
 20
-3.90248
 30
0
  0
SPLINE
  5
A2C
330
A02
100
AcDbEntity
  8
Shape2DView
100
AcDbSpline
210
0
220
0
230
1
 70
8
 71
1
 72
4
 73
2
 74
0
 40
0
 40
0
 40
0.328934
 40
0.328934
 10
80.5625
 20
-22.1076
 30
0
 10
80.273
 20
-21.9514
 30
0
  0
SPLINE
  5
A2D
330
A02
100
AcDbEntity
  8
Shape2DView
100
AcDbSpline
210
0
220
0
230
1
 70
8
 71
3
 72
14
 73
10
 74
0
 40
0
 40
0
 40
0
 40
0
 40
2.83282
 40
2.83282
 40
2.83282
 40
3.71808
 40
3.71808
 40
3.71808
 40
4.42632
 40
4.42632
 40
4.42632
 40
4.42632
 10
93.305
 20
-3.90248
 30
0
 10
93.2942
 20
-4.8443
 30
0
 10
93.3448
 20
-5.79597
 30
0
 10
93.5226
 20
-6.72331
 30
0
 10
93.5774
 20
-7.0135
 30
0
 10
93.6463
 20
-7.30043
 30
0
 10
93.7293
 20
-7.5841
 30
0
 10
93.7934
 20
-7.81228
 30
0
 10
93.8762
 20
-8.03319
 30
0
 10
93.9775
 20
-8.24682
 30
0
  0
SPLINE
  5
A2E
330
A02
100
AcDbEntity
  8
Shape2DView
100
AcDbSpline
210
0
220
0
230
1
 70
8
 71
1
 72
4
 73
2
 74
0
 40
0
 40
0
 40
1.92457
 40
1.92457
 10
81.5247
 20
-20.4409
 30
0
 10
80.5625
 20
-22.1076
 30
0
  0
SPLINE
  5
A2F
330
A02
100
AcDbEntity
  8
Shape2DView
100
AcDbSpline
210
0
220
0
230
1
 70
8
 71
1
 72
4
 73
2
 74
0
 40
0
 40
0
 40
0.328934
 40
0.328934
 10
93.9775
 20
-8.24682
 30
0
 10
94.1338
 20
-8.5363
 30
0
  0
SPLINE
  5
A30
330
A02
100
AcDbEntity
  8
Shape2DView
100
AcDbSpline
210
0
220
0
230
1
 70
8
 71
1
 72
4
 73
2
 74
0
 40
0
 40
0
 40
0.328934
 40
0.328934
 10
81.2447
 20
-20.2683
 30
0
 10
81.5247
 20
-20.4409
 30
0
  0
SPLINE
  5
A31
330
A02
100
AcDbEntity
  8
Shape2DView
100
AcDbSpline
210
0
220
0
230
1
 70
8
 71
1
 72
4
 73
2
 74
0
 40
0
 40
0
 40
1.92457
 40
1.92457
 10
94.1338
 20
-8.5363
 30
0
 10
92.467
 20
-9.49858
 30
0
  0
SPLINE
  5
A32
330
A02
100
AcDbEntity
  8
Shape2DView
100
AcDbSpline
210
0
220
0
230
1
 70
8
 71
3
 72
14
 73
10
 74
0
 40
0
 40
0
 40
0
 40
0
 40
2.83282
 40
2.83282
 40
2.83282
 40
3.71808
 40
3.71808
 40
3.71808
 40
4.42632
 40
4.42632
 40
4.42632
 40
4.42632
 10
78.4901
 20
-16.8423
 30
0
 10
78.9516
 20
-17.6633
 30
0
 10
79.4714
 20
-18.4621
 30
0
 10
80.089
 20
-19.1763
 30
0
 10
80.2815
 20
-19.4003
 30
0
 10
80.4847
 20
-19.6143
 30
0
 10
80.6984
 20
-19.8185
 30
0
 10
80.868
 20
-19.984
 30
0
 10
81.0501
 20
-20.134
 30
0
 10
81.2447
 20
-20.2683
 30
0
  0
SPLINE
  5
A33
330
A02
100
AcDbEntity
  8
Shape2DView
100
AcDbSpline
210
0
220
0
230
1
 70
8
 71
1
 72
4
 73
2
 74
0
 40
0
 40
0
 40
0.328934
 40
0.328934
 10
92.467
 20
-9.49858
 30
0
 10
92.2944
 20
-9.21856
 30
0
  0
SPLINE
  5
A34
330
A02
100
AcDbEntity
  8
Shape2DView
100
AcDbSpline
210
0
220
0
230
1
 70
8
 71
1
 72
4
 73
2
 74
0
 40
0
 40
0
 40
1.50537
 40
1.50537
 10
79.3535
 20
-15.6091
 30
0
 10
78.4901
 20
-16.8423
 30
0
  0
SPLINE
  5
A35
330
A02
100
AcDbEntity
  8
Shape2DView
100
AcDbSpline
210
0
220
0
230
1
 70
8
 71
3
 72
14
 73
10
 74
0
 40
0
 40
0
 40
0
 40
0
 40
0.708239
 40
0.708239
 40
0.708239
 40
1.5935
 40
1.5935
 40
1.5935
 40
4.42632
 40
4.42632
 40
4.42632
 40
4.42632
 10
92.2944
 20
-9.21856
 30
0
 10
92.1601
 20
-9.02396
 30
0
 10
92.0102
 20
-8.84184
 30
0
 10
91.8446
 20
-8.6722
 30
0
 10
91.6405
 20
-8.4585
 30
0
 10
91.4264
 20
-8.25538
 30
0
 10
91.2025
 20
-8.06283
 30
0
 10
90.4883
 20
-7.4452
 30
0
 10
89.6895
 20
-6.92547
 30
0
 10
88.8684
 20
-6.46392
 30
0
  0
SPLINE
  5
A36
330
A02
100
AcDbEntity
  8
Shape2DView
100
AcDbSpline
210
0
220
0
230
1
 70
8
 71
3
 72
14
 73
10
 74
0
 40
0
 40
0
 40
0
 40
0
 40
0.708239
 40
0.708239
 40
0.708239
 40
1.5935
 40
1.5935
 40
1.5935
 40
4.42632
 40
4.42632
 40
4.42632
 40
4.42632
 10
83.5151
 20
-17.0259
 30
0
 10
83.3223
 20
-16.8889
 30
0
 10
83.1191
 20
-16.7691
 30
0
 10
82.9055
 20
-16.6663
 30
0
 10
82.6406
 20
-16.5353
 30
0
 10
82.37
 20
-16.4177
 30
0
 10
82.0937
 20
-16.3133
 30
0
 10
81.2113
 20
-15.9772
 30
0
 10
80.2829
 20
-15.762
 30
0
 10
79.3535
 20
-15.6091
 30
0
  0
SPLINE
  5
A37
330
A02
100
AcDbEntity
  8
Shape2DView
100
AcDbSpline
210
0
220
0
230
1
 70
8
 71
1
 72
4
 73
2
 74
0
 40
0
 40
0
 40
1.50537
 40
1.50537
 10
88.8684
 20
-6.46392
 30
0
 10
87.6353
 20
-7.32737
 30
0
  0
SPLINE
  5
A38
330
A02
100
AcDbEntity
  8
Shape2DView
100
AcDbSpline
210
0
220
0
230
1
 70
8
 71
1
 72
4
 73
2
 74
0
 40
0
 40
0
 40
0.328934
 40
0.328934
 10
83.773
 20
-17.23
 30
0
 10
83.5151
 20
-17.0259
 30
0
  0
SPLINE
  5
A39
330
A02
100
AcDbEntity
  8
Shape2DView
100
AcDbSpline
210
0
220
0
230
1
 70
8
 71
3
 72
14
 73
10
 74
0
 40
0
 40
0
 40
0
 40
0
 40
2.83282
 40
2.83282
 40
2.83282
 40
3.71808
 40
3.71808
 40
3.71808
 40
4.42632
 40
4.42632
 40
4.42632
 40
4.42632
 10
87.6353
 20
-7.32737
 30
0
 10
87.7882
 20
-8.25676
 30
0
 10
88.0034
 20
-9.18518
 30
0
 10
88.3395
 20
-10.0675
 30
0
 10
88.4438
 20
-10.3438
 30
0
 10
88.5615
 20
-10.6144
 30
0
 10
88.6925
 20
-10.8794
 30
0
 10
88.7953
 20
-11.093
 30
0
 10
88.9151
 20
-11.2961
 30
0
 10
89.052
 20
-11.4889
 30
0
  0
SPLINE
  5
A3A
330
A02
100
AcDbEntity
  8
Shape2DView
100
AcDbSpline
210
0
220
0
230
1
 70
8
 71
1
 72
4
 73
2
 74
0
 40
0
 40
0
 40
1.92457
 40
1.92457
 10
85.0101
 20
-15.7557
 30
0
 10
83.773
 20
-17.23
 30
0
  0
SPLINE
  5
A3B
330
A02
100
AcDbEntity
  8
Shape2DView
100
AcDbSpline
210
0
220
0
230
1
 70
8
 71
1
 72
4
 73
2
 74
0
 40
0
 40
0
 40
0.328934
 40
0.328934
 10
89.052
 20
-11.4889
 30
0
 10
89.2561
 20
-11.7469
 30
0
  0
SPLINE
  5
A3C
330
A02
100
AcDbEntity
  8
Shape2DView
100
AcDbSpline
210
0
220
0
230
1
 70
8
 71
1
 72
4
 73
2
 74
0
 40
0
 40
0
 40
0.328934
 40
0.328934
 10
84.7643
 20
-15.5371
 30
0
 10
85.0101
 20
-15.7557
 30
0
  0
SPLINE
  5
A3D
330
A02
100
AcDbEntity
  8
Shape2DView
100
AcDbSpline
210
0
220
0
230
1
 70
8
 71
1
 72
4
 73
2
 74
0
 40
0
 40
0
 40
1.92457
 40
1.92457
 10
89.2561
 20
-11.7469
 30
0
 10
87.7818
 20
-12.984
 30
0
  0
SPLINE
  5
A3E
330
A02
100
AcDbEntity
  8
Shape2DView
100
AcDbSpline
210
0
220
0
230
1
 70
8
 71
3
 72
14
 73
10
 74
0
 40
0
 40
0
 40
0
 40
0
 40
2.83282
 40
2.83282
 40
2.83282
 40
3.71808
 40
3.71808
 40
3.71808
 40
4.42632
 40
4.42632
 40
4.42632
 40
4.42632
 10
82.6465
 20
-11.6848
 30
0
 10
82.9584
 20
-12.5735
 30
0
 10
83.3315
 20
-13.4504
 30
0
 10
83.8158
 20
-14.261
 30
0
 10
83.9665
 20
-14.515
 30
0
 10
84.1294
 20
-14.7611
 30
0
 10
84.3044
 20
-14.9992
 30
0
 10
84.4427
 20
-15.1917
 30
0
 10
84.596
 20
-15.371
 30
0
 10
84.7643
 20
-15.5371
 30
0
  0
SPLINE
  5
A3F
330
A02
100
AcDbEntity
  8
Shape2DView
100
AcDbSpline
210
0
220
0
230
1
 70
8
 71
1
 72
4
 73
2
 74
0
 40
0
 40
0
 40
0.328934
 40
0.328934
 10
87.7818
 20
-12.984
 30
0
 10
87.5632
 20
-12.7382
 30
0
  0
SPLINE
  5
A40
330
A02
100
AcDbEntity
  8
Shape2DView
100
AcDbSpline
210
0
220
0
230
1
 70
8
 71
1
 72
4
 73
2
 74
0
 40
0
 40
0
 40
1.50537
 40
1.50537
 10
83.7109
 20
-10.6203
 30
0
 10
82.6465
 20
-11.6848
 30
0
  0
SPLINE
  5
A41
330
A02
100
AcDbEntity
  8
Shape2DView
100
AcDbSpline
210
0
220
0
230
1
 70
8
 71
3
 72
14
 73
10
 74
0
 40
0
 40
0
 40
0
 40
0
 40
0.708239
 40
0.708239
 40
0.708239
 40
1.5935
 40
1.5935
 40
1.5935
 40
4.42632
 40
4.42632
 40
4.42632
 40
4.42632
 10
87.5632
 20
-12.7382
 30
0
 10
87.3972
 20
-12.5698
 30
0
 10
87.2179
 20
-12.4165
 30
0
 10
87.0254
 20
-12.2782
 30
0
 10
86.7872
 20
-12.1032
 30
0
 10
86.5411
 20
-11.9403
 30
0
 10
86.2872
 20
-11.7896
 30
0
 10
85.4766
 20
-11.3054
 30
0
 10
84.5996
 20
-10.9323
 30
0
 10
83.7109
 20
-10.6203
 30
0
  0
CIRCLE
  5
A42
330
A02
100
AcDbEntity
  8
Shape2DView
100
AcDbCircle
 10
259.555
 20
-42.5311
 40
2
  0
CIRCLE
  5
A43
330
A02
100
AcDbEntity
  8
Shape2DView
100
AcDbCircle
 10
110.043
 20
-38.0173
 40
2
  0
ENDSEC
  0
SECTION
  2
OBJECTS
  0
DICTIONARY
  5
F000
330
0
100
AcDbDictionary
  3
ACAD_GROUP
350
F001
  0
DICTIONARY
  5
F001
330
F000
100
AcDbDictionary
  0
ENDSEC
  0
EOF