999
FreeCAD v0.19 24291 (Git)
  0
SECTION
  2
HEADER
  9
$ACADVER
  1
AC1014
  9
$ACADMAINTVER
 70
     9
  9
$DWGCODEPAGE
  3
ANSI_1252
  9
$TEXTSTYLE
  7
STANDARD
  9
$DIMSTYLE
  2
STANDARD
  9
$DIMTXSTY
  7
STANDARD
  9
$CMLSTYLE
  2
STANDARD
  9
$PEXTMAX
 10
50
 20
50
 30
50
  9
$PEXTMIN
 10
0
 20
0
 30
0
  9
$HANDSEED
  5
FFFF
  0
ENDSEC
  0
SECTION
  2
CLASSES
  0
CLASS
  1
ACDBDICTIONARYWDFLT
  2
AcDbDictionaryWithDefault
  3
ObjectDBX Classes
 90
        0
280
     0
281
     0
  0
CLASS
  1
XRECORD
  2
AcDbXrecord
  3
ObjectDBX Classes
 90
        0
280
     0
281
     0
  0
CLASS
  1
LWPOLYLINE
  2
AcDbPolyline
  3
ObjectDBX Classes
 90
        0
280
     0
281
     1
  0
ENDSEC
  0
SECTION
  2
TABLES
  0
TABLE
  2
VPORT
  5
20
330
0
100
AcDbSymbolTable
 70
     1
  0
VPORT
  5
21
330
20
100
AcDbSymbolTableRecord
100
AcDbViewportTableRecord
  2
*ACTIVE
 70
     0
  0
ENDTAB
  0
TABLE
  2
LTYPE
  5
22
330
0
100
AcDbSymbolTable
 70
     1
  0
LTYPE
  5
23
330
21
100
AcDbSymbolTableRecord
100
AcDbLinetypeTableRecord
  2
BYBLOCK
 70
     0
  3

 72
    65
 73
     0
 40
0.0
  0
LTYPE
  5
24
330
21
100
AcDbSymbolTableRecord
100
AcDbLinetypeTableRecord
  2
BYLAYER
 70
     0
  3

 72
    65
 73
     0
 40
0.0
  0
LTYPE
  5
25
330
21
100
AcDbSymbolTableRecord
100
AcDbLinetypeTableRecord
  2
CONTINUOUS
 70
     0
  3
Solid line
 72
    65
 73
     0
 40
0.0
  0
ENDTAB
  0
TABLE
  2
LAYER
  5
A55
330
0
100
AcDbSymbolTable
 70
3
  0
LAYER
  5
A56
330
A55
100
AcDbSymbolTableRecord
100
AcDbLayerTableRecord
  2
0
 70
   0
 62
   7
  6
CONTINUOUS
  0
LAYER
  5
A57
330
A55
100
AcDbSymbolTableRecord
100
AcDbLayerTableRecord
  2
none
 70
    0
 62
    7
  6
CONTINUOUS
  0
LAYER
  5
A58
330
A55
100
AcDbSymbolTableRecord
100
AcDbLayerTableRecord
  2
Shape2DView002
 70
    0
 62
    7
  6
CONTINUOUS
  0
ENDTAB
  0
TABLE
  2
STYLE
  5
70
330
0
100
AcDbSymbolTable
 70
     2
  0
STYLE
  5
71
330
70
100
AcDbSymbolTableRecord
100
AcDbTextStyleTableRecord
  2
STANDARD
 70
     0
 40
0.0
 41
1.0
 50
0.0
 71
     0
 42
2.5
  3
arial.ttf
  4

  0
STYLE
  5
72
330
70
100
AcDbSymbolTableRecord
100
AcDbTextStyleTableRecord
  2
ANNOTATIVE
 70
     0
 40
0.0
 41
1.0
 50
0.0
 71
     0
 42
2.5
  3
arial.ttf
  4

  0
ENDTAB
  0
TABLE
  2
VIEW
  5
73
330
0
100
AcDbSymbolTable
 70
     0
  0
ENDTAB
  0
TABLE
  2
UCS
  5
74
330
0
100
AcDbSymbolTable
 70
     0
  0
ENDTAB
  0
TABLE
  2
APPID
  5
75
330
0
100
AcDbSymbolTable
 70
     2
  0
APPID
  5
76
330
75
100
AcDbSymbolTableRecord
100
AcDbRegAppTableRecord
  2
ACAD
 70
     0
  0
APPID
  5
77
330
75
100
AcDbSymbolTableRecord
100
AcDbRegAppTableRecord
  2
ACADANNOTATIVE
 70
     0
  0
ENDTAB
  0
TABLE
  2
DIMSTYLE
  5
78
330
0
100
AcDbSymbolTable
 70
     2
  0
DIMSTYLE
105
79
330
78
100
AcDbSymbolTableRecord
100
AcDbDimStyleTableRecord
  2
STANDARD
 70
     0
  3

  4

  5

  6

  7

 40
0.0
 41
2.5
 42
0.625
 43
3.75
 44
1.25
 45
0.0
 46
0.0
 47
0.0
 48
0.0
140
2.5
141
2.5
142
0.0
143
0.03937007874016
144
1.0
145
0.0
146
1.0
147
0.625
 71
     0
 72
     0
 73
     0
 74
     0
 75
     0
 76
     0
 77
     1
 78
     8
170
     0
171
     3
172
     1
173
     0
174
     0
175
     0
176
     0
177
     0
178
     0
270
     2
271
     2
272
     2
273
     2
274
     3
340
71
275
     0
280
     0
281
     0
282
     0
283
     0
284
     8
285
     0
286
     0
287
     3
288
     0
  0
ENDTAB
  0
TABLE
  2
BLOCK_RECORD
  5
A01
330
0
100
AcDbSymbolTable
  70
5
  0
BLOCK_RECORD
  5
A02
330
A01
100
AcDbSymbolTableRecord
100
AcDbBlockTableRecord
  2
*MODEL_SPACE
  0
BLOCK_RECORD
  5
A03
330
A01
100
AcDbSymbolTableRecord
100
AcDbBlockTableRecord
  2
*PAPER_SPACE
  0
ENDTAB
  0
ENDSEC
  0
SECTION
  2
BLOCKS
  0
BLOCK
  5
A04
330
A02
100
AcDbEntity
  8
0
100
AcDbBlockBegin
  2
*MODEL_SPACE
 70
   0
 10
0
 20
0
 30
0
  3
*MODEL_SPACE
  1
 
  0
ENDBLK
  5
A05
330
A02
100
AcDbEntity
  8
0
100
AcDbBlockEnd
  0
BLOCK
  5
A06
330
A03
100
AcDbEntity
 67
1
  8
0
100
AcDbBlockBegin
  2
*PAPER_SPACE
 70
   0
 10
0
 20
0
 30
0
  3
*PAPER_SPACE
  1
 
  0
ENDBLK
  5
A07
330
A03
100
AcDbEntity
 67
    1
  8
0
100
AcDbBlockEnd
  0
ENDSEC
  0
SECTION
  2
ENTITIES
  0
LINE
  5
A08
330
A02
100
AcDbEntity
  8
Shape2DView002
100
AcDbLine
 10
5.06213
 20
-33.9903
 30
0
 11
-8.88178e-16
 21
-33.9903
 31
0
  0
LINE
  5
A09
330
A02
100
AcDbEntity
  8
Shape2DView002
100
AcDbLine
 10
-1.33227e-15
 20
-33.9903
 30
0
 11
-1.33227e-15
 21
-37.9903
 31
0
  0
LINE
  5
A0A
330
A02
100
AcDbEntity
  8
Shape2DView002
100
AcDbLine
 10
-1.33227e-15
 20
-37.9903
 30
0
 11
-1.33227e-15
 21
-410
 31
0
  0
ARC
  5
A0B
330
A02
100
AcDbEntity
  8
Shape2DView002
100
AcDbCircle
 10
10
 20
-410
 30
0
 40
10
100
AcDbArc
 50
180
 51
-90
  0
LINE
  5
A0C
330
A02
100
AcDbEntity
  8
Shape2DView002
100
AcDbLine
 10
10
 20
-420
 30
0
 11
75.9807
 21
-420
 31
0
  0
LINE
  5
A0D
330
A02
100
AcDbEntity
  8
Shape2DView002
100
AcDbLine
 10
75.9807
 20
-420
 30
0
 11
75.9807
 21
-37.2473
 31
0
  0
SPLINE
  5
A0E
330
A02
100
AcDbEntity
  8
Shape2DView002
100
AcDbSpline
210
0
220
0
230
1
 70
8
 71
3
 72
14
 73
10
 74
0
 40
0
 40
0
 40
0
 40
0
 40
2.83282
 40
2.83282
 40
2.83282
 40
3.71808
 40
3.71808
 40
3.71808
 40
4.42632
 40
4.42632
 40
4.42632
 40
4.42632
 10
75.9807
 20
-37.2473
 30
0
 10
75.1509
 20
-36.8395
 30
0
 10
74.2571
 20
-36.4832
 30
0
 10
73.344
 20
-36.2524
 30
0
 10
73.0579
 20
-36.1795
 30
0
 10
72.7687
 20
-36.1206
 30
0
 10
72.4765
 20
-36.076
 30
0
 10
72.2426
 20
-36.0377
 30
0
 10
72.0074
 20
-36.0193
 30
0
 10
71.771
 20
-36.0209
 30
0
  0
SPLINE
  5
A0F
330
A02
100
AcDbEntity
  8
Shape2DView002
100
AcDbSpline
210
0
220
0
230
1
 70
8
 71
1
 72
4
 73
2
 74
0
 40
0
 40
0
 40
0.328934
 40
0.328934
 10
71.771
 20
-36.0209
 30
0
 10
71.4426
 20
-36.0401
 30
0
  0
SPLINE
  5
A10
330
A02
100
AcDbEntity
  8
Shape2DView002
100
AcDbSpline
210
0
220
0
230
1
 70
8
 71
1
 72
4
 73
2
 74
0
 40
0
 40
0
 40
1.92457
 40
1.92457
 10
71.4426
 20
-36.0401
 30
0
 10
71.2749
 20
-34.1229
 30
0
  0
SPLINE
  5
A11
330
A02
100
AcDbEntity
  8
Shape2DView002
100
AcDbSpline
210
0
220
0
230
1
 70
8
 71
1
 72
4
 73
2
 74
0
 40
0
 40
0
 40
0.328934
 40
0.328934
 10
71.2749
 20
-34.1229
 30
0
 10
71.6016
 20
-34.0848
 30
0
  0
SPLINE
  5
A12
330
A02
100
AcDbEntity
  8
Shape2DView002
100
AcDbSpline
210
0
220
0
230
1
 70
8
 71
3
 72
14
 73
10
 74
0
 40
0
 40
0
 40
0
 40
0
 40
0.708239
 40
0.708239
 40
0.708239
 40
1.5935
 40
1.5935
 40
1.5935
 40
4.42632
 40
4.42632
 40
4.42632
 40
4.42632
 10
71.6016
 20
-34.0848
 30
0
 10
71.8347
 20
-34.0453
 30
0
 10
72.0632
 20
-33.9864
 30
0
 10
72.2869
 20
-33.908
 30
0
 10
72.5668
 20
-33.8133
 30
0
 10
72.8414
 20
-33.7052
 30
0
 10
73.1105
 20
-33.5836
 30
0
 10
73.9721
 20
-33.1973
 30
0
 10
74.7808
 20
-32.693
 30
0
 10
75.5461
 20
-32.1439
 30
0
  0
SPLINE
  5
A13
330
A02
100
AcDbEntity
  8
Shape2DView002
100
AcDbSpline
210
0
220
0
230
1
 70
8
 71
1
 72
4
 73
2
 74
0
 40
0
 40
0
 40
1.50537
 40
1.50537
 10
75.5461
 20
-32.1439
 30
0
 10
75.2846
 20
-30.6614
 30
0
  0
SPLINE
  5
A14
330
A02
100
AcDbEntity
  8
Shape2DView002
100
AcDbSpline
210
0
220
0
230
1
 70
8
 71
3
 72
14
 73
10
 74
0
 40
0
 40
0
 40
0
 40
0
 40
2.83282
 40
2.83282
 40
2.83282
 40
3.71808
 40
3.71808
 40
3.71808
 40
4.42632
 40
4.42632
 40
4.42632
 40
4.42632
 10
75.2846
 20
-30.6614
 30
0
 10
74.3777
 20
-30.4072
 30
0
 10
73.4454
 20
-30.2098
 30
0
 10
72.5036
 20
-30.1416
 30
0
 10
72.2091
 20
-30.1194
 30
0
 10
71.9141
 20
-30.1117
 30
0
 10
71.6186
 20
-30.1184
 30
0
 10
71.3816
 20
-30.1213
 30
0
 10
71.1469
 20
-30.144
 30
0
 10
70.9143
 20
-30.1867
 30
0
  0
SPLINE
  5
A15
330
A02
100
AcDbEntity
  8
Shape2DView002
100
AcDbSpline
210
0
220
0
230
1
 70
8
 71
1
 72
4
 73
2
 74
0
 40
0
 40
0
 40
0.328934
 40
0.328934
 10
70.9143
 20
-30.1867
 30
0
 10
70.5942
 20
-30.2626
 30
0
  0
SPLINE
  5
A16
330
A02
100
AcDbEntity
  8
Shape2DView002
100
AcDbSpline
210
0
220
0
230
1
 70
8
 71
1
 72
4
 73
2
 74
0
 40
0
 40
0
 40
1.92457
 40
1.92457
 10
70.5942
 20
-30.2626
 30
0
 10
70.0961
 20
-28.4036
 30
0
  0
SPLINE
  5
A17
330
A02
100
AcDbEntity
  8
Shape2DView002
100
AcDbSpline
210
0
220
0
230
1
 70
8
 71
1
 72
4
 73
2
 74
0
 40
0
 40
0
 40
0.328934
 40
0.328934
 10
70.0961
 20
-28.4036
 30
0
 10
70.4113
 20
-28.3094
 30
0
  0
SPLINE
  5
A18
330
A02
100
AcDbEntity
  8
Shape2DView002
100
AcDbSpline
210
0
220
0
230
1
 70
8
 71
3
 72
14
 73
10
 74
0
 40
0
 40
0
 40
0
 40
0
 40
0.708239
 40
0.708239
 40
0.708239
 40
1.5935
 40
1.5935
 40
1.5935
 40
4.42632
 40
4.42632
 40
4.42632
 40
4.42632
 10
70.4113
 20
-28.3094
 30
0
 10
70.634
 20
-28.23
 30
0
 10
70.8487
 20
-28.1323
 30
0
 10
71.0554
 20
-28.0163
 30
0
 10
71.3147
 20
-27.8744
 30
0
 10
71.5663
 20
-27.7203
 30
0
 10
71.8102
 20
-27.5538
 30
0
 10
72.5917
 20
-27.0238
 30
0
 10
73.3004
 20
-26.3867
 30
0
 10
73.9587
 20
-25.7131
 30
0
  0
SPLINE
  5
A19
330
A02
100
AcDbEntity
  8
Shape2DView002
100
AcDbSpline
210
0
220
0
230
1
 70
8
 71
1
 72
4
 73
2
 74
0
 40
0
 40
0
 40
1.50537
 40
1.50537
 10
73.9587
 20
-25.7131
 30
0
 10
73.4439
 20
-24.2985
 30
0
  0
SPLINE
  5
A1A
330
A02
100
AcDbEntity
  8
Shape2DView002
100
AcDbSpline
210
0
220
0
230
1
 70
8
 71
3
 72
14
 73
10
 74
0
 40
0
 40
0
 40
0
 40
0
 40
2.83282
 40
2.83282
 40
2.83282
 40
3.71808
 40
3.71808
 40
3.71808
 40
4.42632
 40
4.42632
 40
4.42632
 40
4.42632
 10
73.4439
 20
-24.2985
 30
0
 10
72.5066
 20
-24.2056
 30
0
 10
71.5541
 20
-24.1732
 30
0
 10
70.6148
 20
-24.2695
 30
0
 10
70.321
 20
-24.2988
 30
0
 10
70.0291
 20
-24.3424
 30
0
 10
69.7393
 20
-24.4003
 30
0
 10
69.5064
 20
-24.4443
 30
0
 10
69.2791
 20
-24.5075
 30
0
 10
69.0574
 20
-24.5899
 30
0
  0
SPLINE
  5
A1B
330
A02
100
AcDbEntity
  8
Shape2DView002
100
AcDbSpline
210
0
220
0
230
1
 70
8
 71
1
 72
4
 73
2
 74
0
 40
0
 40
0
 40
0.328934
 40
0.328934
 10
69.0574
 20
-24.5899
 30
0
 10
68.7555
 20
-24.7203
 30
0
  0
SPLINE
  5
A1C
330
A02
100
AcDbEntity
  8
Shape2DView002
100
AcDbSpline
210
0
220
0
230
1
 70
8
 71
1
 72
4
 73
2
 74
0
 40
0
 40
0
 40
1.92457
 40
1.92457
 10
68.7555
 20
-24.7203
 30
0
 10
67.9421
 20
-22.976
 30
0
  0
SPLINE
  5
A1D
330
A02
100
AcDbEntity
  8
Shape2DView002
100
AcDbSpline
210
0
220
0
230
1
 70
8
 71
1
 72
4
 73
2
 74
0
 40
0
 40
0
 40
0.328934
 40
0.328934
 10
67.9421
 20
-22.976
 30
0
 10
68.2361
 20
-22.8285
 30
0
  0
SPLINE
  5
A1E
330
A02
100
AcDbEntity
  8
Shape2DView002
100
AcDbSpline
210
0
220
0
230
1
 70
8
 71
3
 72
14
 73
10
 74
0
 40
0
 40
0
 40
0
 40
0
 40
0.708239
 40
0.708239
 40
0.708239
 40
1.5935
 40
1.5935
 40
1.5935
 40
4.42632
 40
4.42632
 40
4.42632
 40
4.42632
 10
68.2361
 20
-22.8285
 30
0
 10
68.4417
 20
-22.7116
 30
0
 10
68.6362
 20
-22.5781
 30
0
 10
68.8196
 20
-22.428
 30
0
 10
69.0503
 20
-22.2432
 30
0
 10
69.2713
 20
-22.0477
 30
0
 10
69.4826
 20
-21.8414
 30
0
 10
70.1601
 20
-21.1838
 30
0
 10
70.7475
 20
-20.4333
 30
0
 10
71.2789
 20
-19.6556
 30
0
  0
SPLINE
  5
A1F
330
A02
100
AcDbEntity
  8
Shape2DView002
100
AcDbSpline
210
0
220
0
230
1
 70
8
 71
1
 72
4
 73
2
 74
0
 40
0
 40
0
 40
1.50537
 40
1.50537
 10
71.2789
 20
-19.6556
 30
0
 10
70.5262
 20
-18.3519
 30
0
  0
SPLINE
  5
A20
330
A02
100
AcDbEntity
  8
Shape2DView002
100
AcDbSpline
210
0
220
0
230
1
 70
8
 71
3
 72
14
 73
10
 74
0
 40
0
 40
0
 40
0
 40
0
 40
2.83282
 40
2.83282
 40
2.83282
 40
3.71808
 40
3.71808
 40
3.71808
 40
4.42632
 40
4.42632
 40
4.42632
 40
4.42632
 10
70.5262
 20
-18.3519
 30
0
 10
69.587
 20
-18.4232
 30
0
 10
68.6433
 20
-18.5566
 30
0
 10
67.735
 20
-18.8146
 30
0
 10
67.4507
 20
-18.8944
 30
0
 10
67.1709
 20
-18.9881
 30
0
 10
66.8955
 20
-19.0955
 30
0
 10
66.6738
 20
-19.1792
 30
0
 10
66.461
 20
-19.2809
 30
0
 10
66.257
 20
-19.4005
 30
0
  0
SPLINE
  5
A21
330
A02
100
AcDbEntity
  8
Shape2DView002
100
AcDbSpline
210
0
220
0
230
1
 70
8
 71
1
 72
4
 73
2
 74
0
 40
0
 40
0
 40
0.328934
 40
0.328934
 10
66.257
 20
-19.4005
 30
0
 10
65.9822
 20
-19.5814
 30
0
  0
SPLINE
  5
A22
330
A02
100
AcDbEntity
  8
Shape2DView002
100
AcDbSpline
210
0
220
0
230
1
 70
8
 71
1
 72
4
 73
2
 74
0
 40
0
 40
0
 40
1.92457
 40
1.92457
 10
65.9822
 20
-19.5814
 30
0
 10
64.8783
 20
-18.0049
 30
0
  0
SPLINE
  5
A23
330
A02
100
AcDbEntity
  8
Shape2DView002
100
AcDbSpline
210
0
220
0
230
1
 70
8
 71
1
 72
4
 73
2
 74
0
 40
0
 40
0
 40
0.328934
 40
0.328934
 10
64.8783
 20
-18.0049
 30
0
 10
65.1422
 20
-17.8085
 30
0
  0
SPLINE
  5
A24
330
A02
100
AcDbEntity
  8
Shape2DView002
100
AcDbSpline
210
0
220
0
230
1
 70
8
 71
3
 72
14
 73
10
 74
0
 40
0
 40
0
 40
0
 40
0
 40
0.708239
 40
0.708239
 40
0.708239
 40
1.5935
 40
1.5935
 40
1.5935
 40
4.42632
 40
4.42632
 40
4.42632
 40
4.42632
 10
65.1422
 20
-17.8085
 30
0
 10
65.3244
 20
-17.6577
 30
0
 10
65.4927
 20
-17.4925
 30
0
 10
65.6473
 20
-17.3128
 30
0
 10
65.8424
 20
-17.0908
 30
0
 10
66.0261
 20
-16.8599
 30
0
 10
66.1984
 20
-16.62
 30
0
 10
66.7514
 20
-15.8547
 30
0
 10
67.1996
 20
-15.0136
 30
0
 10
67.5878
 20
-14.1555
 30
0
  0
SPLINE
  5
A25
330
A02
100
AcDbEntity
  8
Shape2DView002
100
AcDbSpline
210
0
220
0
230
1
 70
8
 71
1
 72
4
 73
2
 74
0
 40
0
 40
0
 40
1.50537
 40
1.50537
 10
67.5878
 20
-14.1555
 30
0
 10
66.6202
 20
-13.0023
 30
0
  0
SPLINE
  5
A26
330
A02
100
AcDbEntity
  8
Shape2DView002
100
AcDbSpline
210
0
220
0
230
1
 70
8
 71
3
 72
14
 73
10
 74
0
 40
0
 40
0
 40
0
 40
0
 40
2.83282
 40
2.83282
 40
2.83282
 40
3.71808
 40
3.71808
 40
3.71808
 40
4.42632
 40
4.42632
 40
4.42632
 40
4.42632
 10
66.6202
 20
-13.0023
 30
0
 10
65.7076
 20
-13.2356
 30
0
 10
64.8015
 20
-13.5309
 30
0
 10
63.9518
 20
-13.9426
 30
0
 10
63.6857
 20
-14.0706
 30
0
 10
63.4263
 20
-14.2114
 30
0
 10
63.1738
 20
-14.365
 30
0
 10
62.97
 20
-14.486
 30
0
 10
62.778
 20
-14.6231
 30
0
 10
62.5979
 20
-14.7763
 30
0
  0
SPLINE
  5
A27
330
A02
100
AcDbEntity
  8
Shape2DView002
100
AcDbSpline
210
0
220
0
230
1
 70
8
 71
1
 72
4
 73
2
 74
0
 40
0
 40
0
 40
0.328934
 40
0.328934
 10
62.5979
 20
-14.7763
 30
0
 10
62.3587
 20
-15.0021
 30
0
  0
SPLINE
  5
A28
330
A02
100
AcDbEntity
  8
Shape2DView002
100
AcDbSpline
210
0
220
0
230
1
 70
8
 71
1
 72
4
 73
2
 74
0
 40
0
 40
0
 40
1.92457
 40
1.92457
 10
62.3587
 20
-15.0021
 30
0
 10
60.9979
 20
-13.6413
 30
0
  0
SPLINE
  5
A29
330
A02
100
AcDbEntity
  8
Shape2DView002
100
AcDbSpline
210
0
220
0
230
1
 70
8
 71
1
 72
4
 73
2
 74
0
 40
0
 40
0
 40
0.328934
 40
0.328934
 10
60.9979
 20
-13.6413
 30
0
 10
61.2237
 20
-13.4021
 30
0
  0
SPLINE
  5
A2A
330
A02
100
AcDbEntity
  8
Shape2DView002
100
AcDbSpline
210
0
220
0
230
1
 70
8
 71
3
 72
14
 73
10
 74
0
 40
0
 40
0
 40
0
 40
0
 40
0.708239
 40
0.708239
 40
0.708239
 40
1.5935
 40
1.5935
 40
1.5935
 40
4.42632
 40
4.42632
 40
4.42632
 40
4.42632
 10
61.2237
 20
-13.4021
 30
0
 10
61.3769
 20
-13.222
 30
0
 10
61.514
 20
-13.03
 30
0
 10
61.635
 20
-12.8262
 30
0
 10
61.7886
 20
-12.5737
 30
0
 10
61.9294
 20
-12.3143
 30
0
 10
62.0574
 20
-12.0482
 30
0
 10
62.4691
 20
-11.1985
 30
0
 10
62.7644
 20
-10.2924
 30
0
 10
62.9977
 20
-9.37984
 30
0
  0
SPLINE
  5
A2B
330
A02
100
AcDbEntity
  8
Shape2DView002
100
AcDbSpline
210
0
220
0
230
1
 70
8
 71
1
 72
4
 73
2
 74
0
 40
0
 40
0
 40
1.50537
 40
1.50537
 10
62.9977
 20
-9.37984
 30
0
 10
61.8445
 20
-8.41221
 30
0
  0
SPLINE
  5
A2C
330
A02
100
AcDbEntity
  8
Shape2DView002
100
AcDbSpline
210
0
220
0
230
1
 70
8
 71
3
 72
14
 73
10
 74
0
 40
0
 40
0
 40
0
 40
0
 40
2.83282
 40
2.83282
 40
2.83282
 40
3.71808
 40
3.71808
 40
3.71808
 40
4.42632
 40
4.42632
 40
4.42632
 40
4.42632
 10
61.8445
 20
-8.41221
 30
0
 10
60.9864
 20
-8.80044
 30
0
 10
60.1453
 20
-9.24856
 30
0
 10
59.38
 20
-9.8016
 30
0
 10
59.1401
 20
-9.9739
 30
0
 10
58.9092
 20
-10.1576
 30
0
 10
58.6872
 20
-10.3527
 30
0
 10
58.5075
 20
-10.5073
 30
0
 10
58.3423
 20
-10.6756
 30
0
 10
58.1915
 20
-10.8578
 30
0
  0
SPLINE
  5
A2D
330
A02
100
AcDbEntity
  8
Shape2DView002
100
AcDbSpline
210
0
220
0
230
1
 70
8
 71
1
 72
4
 73
2
 74
0
 40
0
 40
0
 40
0.328934
 40
0.328934
 10
58.1915
 20
-10.8578
 30
0
 10
57.9951
 20
-11.1217
 30
0
  0
SPLINE
  5
A2E
330
A02
100
AcDbEntity
  8
Shape2DView002
100
AcDbSpline
210
0
220
0
230
1
 70
8
 71
1
 72
4
 73
2
 74
0
 40
0
 40
0
 40
1.92457
 40
1.92457
 10
57.9951
 20
-11.1217
 30
0
 10
56.4186
 20
-10.0178
 30
0
  0
SPLINE
  5
A2F
330
A02
100
AcDbEntity
  8
Shape2DView002
100
AcDbSpline
210
0
220
0
230
1
 70
8
 71
1
 72
4
 73
2
 74
0
 40
0
 40
0
 40
0.328934
 40
0.328934
 10
56.4186
 20
-10.0178
 30
0
 10
56.5995
 20
-9.74303
 30
0
  0
SPLINE
  5
A30
330
A02
100
AcDbEntity
  8
Shape2DView002
100
AcDbSpline
210
0
220
0
230
1
 70
8
 71
3
 72
14
 73
10
 74
0
 40
0
 40
0
 40
0
 40
0
 40
0.708239
 40
0.708239
 40
0.708239
 40
1.5935
 40
1.5935
 40
1.5935
 40
4.42632
 40
4.42632
 40
4.42632
 40
4.42632
 10
56.5995
 20
-9.74303
 30
0
 10
56.7191
 20
-9.53904
 30
0
 10
56.8208
 20
-9.32619
 30
0
 10
56.9045
 20
-9.10447
 30
0
 10
57.0119
 20
-8.82911
 30
0
 10
57.1056
 20
-8.54927
 30
0
 10
57.1854
 20
-8.26496
 30
0
 10
57.4434
 20
-7.35665
 30
0
 10
57.5768
 20
-6.41301
 30
0
 10
57.6481
 20
-5.47383
 30
0
  0
SPLINE
  5
A31
330
A02
100
AcDbEntity
  8
Shape2DView002
100
AcDbSpline
210
0
220
0
230
1
 70
8
 71
1
 72
4
 73
2
 74
0
 40
0
 40
0
 40
1.50537
 40
1.50537
 10
57.6481
 20
-5.47383
 30
0
 10
56.3444
 20
-4.72115
 30
0
  0
SPLINE
  5
A32
330
A02
100
AcDbEntity
  8
Shape2DView002
100
AcDbSpline
210
0
220
0
230
1
 70
8
 71
3
 72
14
 73
10
 74
0
 40
0
 40
0
 40
0
 40
0
 40
2.83282
 40
2.83282
 40
2.83282
 40
3.71808
 40
3.71808
 40
3.71808
 40
4.42632
 40
4.42632
 40
4.42632
 40
4.42632
 10
56.3444
 20
-4.72115
 30
0
 10
55.5667
 20
-5.2525
 30
0
 10
54.8162
 20
-5.83987
 30
0
 10
54.1586
 20
-6.5174
 30
0
 10
53.9523
 20
-6.72873
 30
0
 10
53.7568
 20
-6.94974
 30
0
 10
53.572
 20
-7.18042
 30
0
 10
53.4219
 20
-7.36384
 30
0
 10
53.2884
 20
-7.55833
 30
0
 10
53.1715
 20
-7.7639
 30
0
  0
SPLINE
  5
A33
330
A02
100
AcDbEntity
  8
Shape2DView002
100
AcDbSpline
210
0
220
0
230
1
 70
8
 71
1
 72
4
 73
2
 74
0
 40
0
 40
0
 40
0.328934
 40
0.328934
 10
53.1715
 20
-7.7639
 30
0
 10
53.024
 20
-8.0579
 30
0
  0
SPLINE
  5
A34
330
A02
100
AcDbEntity
  8
Shape2DView002
100
AcDbSpline
210
0
220
0
230
1
 70
8
 71
1
 72
4
 73
2
 74
0
 40
0
 40
0
 40
1.92457
 40
1.92457
 10
53.024
 20
-8.0579
 30
0
 10
51.2797
 20
-7.24454
 30
0
  0
SPLINE
  5
A35
330
A02
100
AcDbEntity
  8
Shape2DView002
100
AcDbSpline
210
0
220
0
230
1
 70
8
 71
1
 72
4
 73
2
 74
0
 40
0
 40
0
 40
0.328934
 40
0.328934
 10
51.2797
 20
-7.24454
 30
0
 10
51.4101
 20
-6.94255
 30
0
  0
SPLINE
  5
A36
330
A02
100
AcDbEntity
  8
Shape2DView002
100
AcDbSpline
210
0
220
0
230
1
 70
8
 71
3
 72
14
 73
10
 74
0
 40
0
 40
0
 40
0
 40
0
 40
0.708239
 40
0.708239
 40
0.708239
 40
1.5935
 40
1.5935
 40
1.5935
 40
4.42632
 40
4.42632
 40
4.42632
 40
4.42632
 10
51.4101
 20
-6.94255
 30
0
 10
51.4925
 20
-6.7209
 30
0
 10
51.5557
 20
-6.49362
 30
0
 10
51.5997
 20
-6.26072
 30
0
 10
51.6576
 20
-5.97089
 30
0
 10
51.7012
 20
-5.67905
 30
0
 10
51.7305
 20
-5.38518
 30
0
 10
51.8268
 20
-4.44589
 30
0
 10
51.7944
 20
-3.49342
 30
0
 10
51.7015
 20
-2.55612
 30
0
  0
SPLINE
  5
A37
330
A02
100
AcDbEntity
  8
Shape2DView002
100
AcDbSpline
210
0
220
0
230
1
 70
8
 71
1
 72
4
 73
2
 74
0
 40
0
 40
0
 40
1.50537
 40
1.50537
 10
51.7015
 20
-2.55612
 30
0
 10
50.2869
 20
-2.04125
 30
0
  0
SPLINE
  5
A38
330
A02
100
AcDbEntity
  8
Shape2DView002
100
AcDbSpline
210
0
220
0
230
1
 70
8
 71
3
 72
14
 73
10
 74
0
 40
0
 40
0
 40
0
 40
0
 40
2.83282
 40
2.83282
 40
2.83282
 40
3.71808
 40
3.71808
 40
3.71808
 40
4.42632
 40
4.42632
 40
4.42632
 40
4.42632
 10
50.2869
 20
-2.04125
 30
0
 10
49.6133
 20
-2.69958
 30
0
 10
48.9762
 20
-3.40835
 30
0
 10
48.4462
 20
-4.18978
 30
0
 10
48.2797
 20
-4.43372
 30
0
 10
48.1256
 20
-4.68533
 30
0
 10
47.9837
 20
-4.94459
 30
0
 10
47.8677
 20
-5.15129
 30
0
 10
47.77
 20
-5.36601
 30
0
 10
47.6906
 20
-5.58875
 30
0
  0
SPLINE
  5
A39
330
A02
100
AcDbEntity
  8
Shape2DView002
100
AcDbSpline
210
0
220
0
230
1
 70
8
 71
1
 72
4
 73
2
 74
0
 40
0
 40
0
 40
0.328934
 40
0.328934
 10
47.6906
 20
-5.58875
 30
0
 10
47.5964
 20
-5.9039
 30
0
  0
SPLINE
  5
A3A
330
A02
100
AcDbEntity
  8
Shape2DView002
100
AcDbSpline
210
0
220
0
230
1
 70
8
 71
1
 72
4
 73
2
 74
0
 40
0
 40
0
 40
1.92457
 40
1.92457
 10
47.5964
 20
-5.9039
 30
0
 10
45.7374
 20
-5.40578
 30
0
  0
SPLINE
  5
A3B
330
A02
100
AcDbEntity
  8
Shape2DView002
100
AcDbSpline
210
0
220
0
230
1
 70
8
 71
1
 72
4
 73
2
 74
0
 40
0
 40
0
 40
0.328934
 40
0.328934
 10
45.7374
 20
-5.40578
 30
0
 10
45.8133
 20
-5.08574
 30
0
  0
SPLINE
  5
A3C
330
A02
100
AcDbEntity
  8
Shape2DView002
100
AcDbSpline
210
0
220
0
230
1
 70
8
 71
3
 72
14
 73
10
 74
0
 40
0
 40
0
 40
0
 40
0
 40
0.708239
 40
0.708239
 40
0.708239
 40
1.5935
 40
1.5935
 40
1.5935
 40
4.42632
 40
4.42632
 40
4.42632
 40
4.42632
 10
45.8133
 20
-5.08574
 30
0
 10
45.856
 20
-4.85315
 30
0
 10
45.8787
 20
-4.61835
 30
0
 10
45.8816
 20
-4.38135
 30
0
 10
45.8883
 20
-4.08587
 30
0
 10
45.8806
 20
-3.79088
 30
0
 10
45.8584
 20
-3.49639
 30
0
 10
45.7902
 20
-2.55465
 30
0
 10
45.5928
 20
-1.62228
 30
0
 10
45.3386
 20
-0.71535
 30
0
  0
SPLINE
  5
A3D
330
A02
100
AcDbEntity
  8
Shape2DView002
100
AcDbSpline
210
0
220
0
230
1
 70
8
 71
1
 72
4
 73
2
 74
0
 40
0
 40
0
 40
1.50537
 40
1.50537
 10
45.3386
 20
-0.71535
 30
0
 10
43.8561
 20
-0.453945
 30
0
  0
SPLINE
  5
A3E
330
A02
100
AcDbEntity
  8
Shape2DView002
100
AcDbSpline
210
0
220
0
230
1
 70
8
 71
3
 72
14
 73
10
 74
0
 40
0
 40
0
 40
0
 40
0
 40
2.83282
 40
2.83282
 40
2.83282
 40
3.71808
 40
3.71808
 40
3.71808
 40
4.42632
 40
4.42632
 40
4.42632
 40
4.42632
 10
43.8561
 20
-0.453945
 30
0
 10
43.307
 20
-1.21924
 30
0
 10
42.8027
 20
-2.02787
 30
0
 10
42.4164
 20
-2.88947
 30
0
 10
42.2948
 20
-3.15861
 30
0
 10
42.1867
 20
-3.43317
 30
0
 10
42.092
 20
-3.71314
 30
0
 10
42.0136
 20
-3.93684
 30
0
 10
41.9547
 20
-4.16526
 30
0
 10
41.9152
 20
-4.39839
 30
0
  0
SPLINE
  5
A3F
330
A02
100
AcDbEntity
  8
Shape2DView002
100
AcDbSpline
210
0
220
0
230
1
 70
8
 71
1
 72
4
 73
2
 74
0
 40
0
 40
0
 40
0.328934
 40
0.328934
 10
41.9152
 20
-4.39839
 30
0
 10
41.8771
 20
-4.72512
 30
0
  0
SPLINE
  5
A40
330
A02
100
AcDbEntity
  8
Shape2DView002
100
AcDbSpline
210
0
220
0
230
1
 70
8
 71
1
 72
4
 73
2
 74
0
 40
0
 40
0
 40
1.92457
 40
1.92457
 10
41.8771
 20
-4.72512
 30
0
 10
39.9599
 20
-4.55738
 30
0
  0
SPLINE
  5
A41
330
A02
100
AcDbEntity
  8
Shape2DView002
100
AcDbSpline
210
0
220
0
230
1
 70
8
 71
1
 72
4
 73
2
 74
0
 40
0
 40
0
 40
0.328934
 40
0.328934
 10
39.9599
 20
-4.55738
 30
0
 10
39.9791
 20
-4.22901
 30
0
  0
SPLINE
  5
A42
330
A02
100
AcDbEntity
  8
Shape2DView002
100
AcDbSpline
210
0
220
0
230
1
 70
8
 71
3
 72
14
 73
10
 74
0
 40
0
 40
0
 40
0
 40
0
 40
0.708239
 40
0.708239
 40
0.708239
 40
1.5935
 40
1.5935
 40
1.5935
 40
4.42632
 40
4.42632
 40
4.42632
 40
4.42632
 10
39.9791
 20
-4.22901
 30
0
 10
39.9807
 20
-3.99255
 30
0
 10
39.9623
 20
-3.75737
 30
0
 10
39.924
 20
-3.52347
 30
0
 10
39.8794
 20
-3.2313
 30
0
 10
39.8205
 20
-2.94214
 30
0
 10
39.7476
 20
-2.65598
 30
0
 10
39.5168
 20
-1.7404
 30
0
 10
39.1605
 20
-0.856467
 30
0
 10
38.7527
 20
-0.007455
 30
0
  0
SPLINE
  5
A43
330
A02
100
AcDbEntity
  8
Shape2DView002
100
AcDbSpline
210
0
220
0
230
1
 70
8
 71
1
 72
4
 73
2
 74
0
 40
0
 40
0
 40
1.50537
 40
1.50537
 10
38.7527
 20
-0.007455
 30
0
 10
37.2473
 20
-0.007455
 30
0
  0
SPLINE
  5
A44
330
A02
100
AcDbEntity
  8
Shape2DView002
100
AcDbSpline
210
0
220
0
230
1
 70
8
 71
3
 72
14
 73
10
 74
0
 40
0
 40
0
 40
0
 40
0
 40
2.83282
 40
2.83282
 40
2.83282
 40
3.71808
 40
3.71808
 40
3.71808
 40
4.42632
 40
4.42632
 40
4.42632
 40
4.42632
 10
37.2473
 20
-0.007455
 30
0
 10
36.8395
 20
-0.856467
 30
0
 10
36.4832
 20
-1.7404
 30
0
 10
36.2524
 20
-2.65598
 30
0
 10
36.1795
 20
-2.94214
 30
0
 10
36.1206
 20
-3.2313
 30
0
 10
36.076
 20
-3.52347
 30
0
 10
36.0377
 20
-3.75737
 30
0
 10
36.0193
 20
-3.99255
 30
0
 10
36.0209
 20
-4.22901
 30
0
  0
SPLINE
  5
A45
330
A02
100
AcDbEntity
  8
Shape2DView002
100
AcDbSpline
210
0
220
0
230
1
 70
8
 71
1
 72
4
 73
2
 74
0
 40
0
 40
0
 40
0.328934
 40
0.328934
 10
36.0209
 20
-4.22901
 30
0
 10
36.0401
 20
-4.55738
 30
0
  0
SPLINE
  5
A46
330
A02
100
AcDbEntity
  8
Shape2DView002
100
AcDbSpline
210
0
220
0
230
1
 70
8
 71
1
 72
4
 73
2
 74
0
 40
0
 40
0
 40
1.92457
 40
1.92457
 10
36.0401
 20
-4.55738
 30
0
 10
34.1229
 20
-4.72512
 30
0
  0
SPLINE
  5
A47
330
A02
100
AcDbEntity
  8
Shape2DView002
100
AcDbSpline
210
0
220
0
230
1
 70
8
 71
1
 72
4
 73
2
 74
0
 40
0
 40
0
 40
0.328934
 40
0.328934
 10
34.1229
 20
-4.72512
 30
0
 10
34.0848
 20
-4.39839
 30
0
  0
SPLINE
  5
A48
330
A02
100
AcDbEntity
  8
Shape2DView002
100
AcDbSpline
210
0
220
0
230
1
 70
8
 71
3
 72
14
 73
10
 74
0
 40
0
 40
0
 40
0
 40
0
 40
0.708239
 40
0.708239
 40
0.708239
 40
1.5935
 40
1.5935
 40
1.5935
 40
4.42632
 40
4.42632
 40
4.42632
 40
4.42632
 10
34.0848
 20
-4.39839
 30
0
 10
34.0453
 20
-4.16526
 30
0
 10
33.9864
 20
-3.93684
 30
0
 10
33.908
 20
-3.71314
 30
0
 10
33.8133
 20
-3.43317
 30
0
 10
33.7052
 20
-3.15861
 30
0
 10
33.5836
 20
-2.88947
 30
0
 10
33.1973
 20
-2.02787
 30
0
 10
32.693
 20
-1.21924
 30
0
 10
32.1439
 20
-0.453945
 30
0
  0
SPLINE
  5
A49
330
A02
100
AcDbEntity
  8
Shape2DView002
100
AcDbSpline
210
0
220
0
230
1
 70
8
 71
1
 72
4
 73
2
 74
0
 40
0
 40
0
 40
1.50537
 40
1.50537
 10
32.1439
 20
-0.453945
 30
0
 10
30.6614
 20
-0.71535
 30
0
  0
SPLINE
  5
A4A
330
A02
100
AcDbEntity
  8
Shape2DView002
100
AcDbSpline
210
0
220
0
230
1
 70
8
 71
3
 72
14
 73
10
 74
0
 40
0
 40
0
 40
0
 40
0
 40
2.83282
 40
2.83282
 40
2.83282
 40
3.71808
 40
3.71808
 40
3.71808
 40
4.42632
 40
4.42632
 40
4.42632
 40
4.42632
 10
30.6614
 20
-0.71535
 30
0
 10
30.4072
 20
-1.62228
 30
0
 10
30.2098
 20
-2.55465
 30
0
 10
30.1416
 20
-3.49639
 30
0
 10
30.1194
 20
-3.79088
 30
0
 10
30.1117
 20
-4.08587
 30
0
 10
30.1184
 20
-4.38135
 30
0
 10
30.1213
 20
-4.61835
 30
0
 10
30.144
 20
-4.85315
 30
0
 10
30.1867
 20
-5.08574
 30
0
  0
SPLINE
  5
A4B
330
A02
100
AcDbEntity
  8
Shape2DView002
100
AcDbSpline
210
0
220
0
230
1
 70
8
 71
1
 72
4
 73
2
 74
0
 40
0
 40
0
 40
0.328934
 40
0.328934
 10
30.1867
 20
-5.08574
 30
0
 10
30.2626
 20
-5.40578
 30
0
  0
SPLINE
  5
A4C
330
A02
100
AcDbEntity
  8
Shape2DView002
100
AcDbSpline
210
0
220
0
230
1
 70
8
 71
1
 72
4
 73
2
 74
0
 40
0
 40
0
 40
1.92457
 40
1.92457
 10
30.2626
 20
-5.40578
 30
0
 10
28.4036
 20
-5.9039
 30
0
  0
SPLINE
  5
A4D
330
A02
100
AcDbEntity
  8
Shape2DView002
100
AcDbSpline
210
0
220
0
230
1
 70
8
 71
1
 72
4
 73
2
 74
0
 40
0
 40
0
 40
0.328934
 40
0.328934
 10
28.4036
 20
-5.9039
 30
0
 10
28.3094
 20
-5.58875
 30
0
  0
SPLINE
  5
A4E
330
A02
100
AcDbEntity
  8
Shape2DView002
100
AcDbSpline
210
0
220
0
230
1
 70
8
 71
3
 72
14
 73
10
 74
0
 40
0
 40
0
 40
0
 40
0
 40
0.708239
 40
0.708239
 40
0.708239
 40
1.5935
 40
1.5935
 40
1.5935
 40
4.42632
 40
4.42632
 40
4.42632
 40
4.42632
 10
28.3094
 20
-5.58875
 30
0
 10
28.23
 20
-5.36601
 30
0
 10
28.1323
 20
-5.15129
 30
0
 10
28.0163
 20
-4.94459
 30
0
 10
27.8744
 20
-4.68533
 30
0
 10
27.7203
 20
-4.43372
 30
0
 10
27.5538
 20
-4.18978
 30
0
 10
27.0238
 20
-3.40835
 30
0
 10
26.3867
 20
-2.69958
 30
0
 10
25.7131
 20
-2.04125
 30
0
  0
SPLINE
  5
A4F
330
A02
100
AcDbEntity
  8
Shape2DView002
100
AcDbSpline
210
0
220
0
230
1
 70
8
 71
1
 72
4
 73
2
 74
0
 40
0
 40
0
 40
1.50537
 40
1.50537
 10
25.7131
 20
-2.04125
 30
0
 10
24.2975
 20
-2.55347
 30
0
  0
LINE
  5
A50
330
A02
100
AcDbEntity
  8
Shape2DView002
100
AcDbLine
 10
24.2975
 20
-2.55347
 30
0
 11
17.1326
 21
-31.862
 31
0
  0
ARC
  5
A51
330
A02
100
AcDbEntity
  8
Shape2DView002
100
AcDbCircle
 10
11.9903
 20
-37.9903
 30
0
 40
8
100
AcDbArc
 50
150
 51
50
  0
CIRCLE
  5
A52
330
A02
100
AcDbEntity
  8
Shape2DView002
100
AcDbCircle
 10
37.9903
 20
-390
 40
5
  0
CIRCLE
  5
A53
330
A02
100
AcDbEntity
  8
Shape2DView002
100
AcDbCircle
 10
37.9903
 20
-11.9903
 40
2
  0
CIRCLE
  5
A54
330
A02
100
AcDbEntity
  8
Shape2DView002
100
AcDbCircle
 10
37.9903
 20
-37.9903
 40
2
  0
ENDSEC
  0
SECTION
  2
OBJECTS
  0
DICTIONARY
  5
F000
330
0
100
AcDbDictionary
  3
ACAD_GROUP
350
F001
  0
DICTIONARY
  5
F001
330
F000
100
AcDbDictionary
  0
ENDSEC
  0
EOF